<svg xmlns="http://www.w3.org/2000/svg" fill-rule="evenodd" stroke-linejoin="round" stroke-miterlimit="2" clip-rule="evenodd" viewBox="0 0 500 500" id="setting"><path d="M206.612,44.25C174.355,62.874 125.767,90.926 93.509,109.55C66.661,125.051 50.121,153.698 50.121,184.7L50.121,315.3C50.121,346.302 66.661,374.949 93.509,390.45C125.767,409.074 174.355,437.126 206.612,455.75C233.461,471.251 266.539,471.251 293.388,455.75C325.645,437.126 374.233,409.074 406.491,390.45C433.339,374.949 449.879,346.302 449.879,315.3L449.879,184.7C449.879,153.698 433.339,125.051 406.491,109.55C374.233,90.926 325.645,62.874 293.388,44.25C266.539,28.749 233.461,28.749 206.612,44.25ZM226.612,78.891C241.085,70.535 258.915,70.535 273.388,78.891C305.645,97.515 354.233,125.567 386.491,144.191C400.963,152.547 409.879,167.989 409.879,184.7L409.879,315.3C409.879,332.011 400.963,347.453 386.491,355.809C354.233,374.433 305.645,402.485 273.388,421.109C258.915,429.465 241.085,429.465 226.612,421.109C194.355,402.485 145.767,374.433 113.509,355.809C99.037,347.453 90.121,332.011 90.121,315.3L90.121,184.7C90.121,167.989 99.037,152.547 113.509,144.191C145.767,125.567 194.355,97.515 226.612,78.891ZM250,175.742C209.016,175.742 175.742,209.016 175.742,250C175.742,290.984 209.016,324.258 250,324.258C290.984,324.258 324.258,290.984 324.258,250C324.258,209.016 290.984,175.742 250,175.742ZM250,215.742C268.908,215.742 284.258,231.092 284.258,250C284.258,268.908 268.908,284.258 250,284.258C231.092,284.258 215.742,268.908 215.742,250C215.742,231.092 231.092,215.742 250,215.742Z"></path></svg>